<?xml version="1.0" encoding="UTF-8" standalone="no"?>
<!DOCTYPE svg PUBLIC "-//W3C//DTD SVG 1.1//EN"
 "http://www.w3.org/Graphics/SVG/1.1/DTD/svg11.dtd">
<!-- Generated by graphviz version 2.50.0 (20211204.2007)
 -->
<!-- Pages: 1 -->
<svg width="465pt" height="638pt"
 viewBox="0.00 0.00 465.00 638.00" xmlns="http://www.w3.org/2000/svg" xmlns:xlink="http://www.w3.org/1999/xlink">
<g id="graph0" class="graph" transform="scale(1 1) rotate(0) translate(4 634)">
<polygon fill="white" stroke="transparent" points="-4,4 -4,-634 461,-634 461,4 -4,4"/>
<!-- cmd/caddy -->
<g id="node1" class="node">
<title>cmd/caddy</title>
<polygon fill="none" stroke="black" points="77,-414 0,-414 0,-378 77,-378 77,-414"/>
<text text-anchor="middle" x="38.5" y="-392.3" font-family="Times,serif" font-size="14.00">cmd/caddy</text>
</g>
<!-- cmd -->
<g id="node2" class="node">
<title>cmd</title>
<polygon fill="none" stroke="black" points="196.5,-549 142.5,-549 142.5,-513 196.5,-513 196.5,-549"/>
<text text-anchor="middle" x="169.5" y="-527.3" font-family="Times,serif" font-size="14.00">cmd</text>
</g>
<!-- cmd/caddy&#45;&gt;cmd -->
<g id="edge1" class="edge">
<title>cmd/caddy&#45;&gt;cmd</title>
<path fill="none" stroke="black" d="M56.9,-414.21C79.31,-437.66 118.39,-478.56 143.85,-505.21"/>
<polygon fill="black" stroke="black" points="141.53,-507.84 150.97,-512.65 146.59,-503 141.53,-507.84"/>
</g>
<!-- modules/standard -->
<g id="node3" class="node">
<title>modules/standard</title>
<polygon fill="none" stroke="black" points="226,-306 113,-306 113,-270 226,-270 226,-306"/>
<text text-anchor="middle" x="169.5" y="-284.3" font-family="Times,serif" font-size="14.00">modules/standard</text>
</g>
<!-- cmd/caddy&#45;&gt;modules/standard -->
<g id="edge2" class="edge">
<title>cmd/caddy&#45;&gt;modules/standard</title>
<path fill="none" stroke="black" d="M61.09,-377.92C82.49,-360.01 115.41,-332.45 139.16,-312.56"/>
<polygon fill="black" stroke="black" points="141.42,-315.24 146.84,-306.14 136.92,-309.87 141.42,-315.24"/>
</g>
<!-- . -->
<g id="node4" class="node">
<title>.</title>
<polygon fill="none" stroke="black" points="386.5,-630 332.5,-630 332.5,-594 386.5,-594 386.5,-630"/>
<text text-anchor="middle" x="359.5" y="-608.3" font-family="Times,serif" font-size="14.00">.</text>
</g>
<!-- cmd&#45;&gt;. -->
<g id="edge3" class="edge">
<title>cmd&#45;&gt;.</title>
<path fill="none" stroke="black" d="M196.76,-548.99C214.54,-560.54 238.92,-575.16 262,-585 281.44,-593.29 304.17,-599.79 322.68,-604.34"/>
<polygon fill="black" stroke="black" points="321.94,-607.76 332.48,-606.66 323.56,-600.95 321.94,-607.76"/>
</g>
<!-- caddyconfig -->
<g id="node5" class="node">
<title>caddyconfig</title>
<polygon fill="none" stroke="black" points="401,-576 318,-576 318,-540 401,-540 401,-576"/>
<text text-anchor="middle" x="359.5" y="-554.3" font-family="Times,serif" font-size="14.00">caddyconfig</text>
</g>
<!-- cmd&#45;&gt;caddyconfig -->
<g id="edge4" class="edge">
<title>cmd&#45;&gt;caddyconfig</title>
<path fill="none" stroke="black" d="M196.64,-534.75C225.2,-538.86 271.65,-545.53 307.48,-550.67"/>
<polygon fill="black" stroke="black" points="307.36,-554.19 317.76,-552.15 308.36,-547.26 307.36,-554.19"/>
</g>
<!-- caddyconfig/caddyfile -->
<g id="node6" class="node">
<title>caddyconfig/caddyfile</title>
<polygon fill="none" stroke="black" points="428,-522 291,-522 291,-486 428,-486 428,-522"/>
<text text-anchor="middle" x="359.5" y="-500.3" font-family="Times,serif" font-size="14.00">caddyconfig/caddyfile</text>
</g>
<!-- cmd&#45;&gt;caddyconfig/caddyfile -->
<g id="edge5" class="edge">
<title>cmd&#45;&gt;caddyconfig/caddyfile</title>
<path fill="none" stroke="black" d="M196.64,-527.25C218.49,-524.11 250.8,-519.47 280.83,-515.16"/>
<polygon fill="black" stroke="black" points="281.5,-518.59 290.9,-513.71 280.51,-511.67 281.5,-518.59"/>
</g>
<!-- modules/standard&#45;&gt;caddyconfig/caddyfile -->
<g id="edge6" class="edge">
<title>modules/standard&#45;&gt;caddyconfig/caddyfile</title>
<path fill="none" stroke="black" d="M174.06,-306.15C182.42,-343.84 206.9,-430.93 262,-477 267.78,-481.83 274.37,-485.8 281.32,-489.07"/>
<polygon fill="black" stroke="black" points="280.42,-492.48 290.99,-493.09 283.1,-486.02 280.42,-492.48"/>
</g>
<!-- modules/caddyhttp/standard -->
<g id="node7" class="node">
<title>modules/caddyhttp/standard</title>
<polygon fill="none" stroke="black" points="444.5,-468 274.5,-468 274.5,-432 444.5,-432 444.5,-468"/>
<text text-anchor="middle" x="359.5" y="-446.3" font-family="Times,serif" font-size="14.00">modules/caddyhttp/standard</text>
</g>
<!-- modules/standard&#45;&gt;modules/caddyhttp/standard -->
<g id="edge7" class="edge">
<title>modules/standard&#45;&gt;modules/caddyhttp/standard</title>
<path fill="none" stroke="black" d="M177.9,-306.33C190.64,-335.52 219.49,-392.4 262,-423 263.89,-424.36 265.85,-425.66 267.87,-426.89"/>
<polygon fill="black" stroke="black" points="266.55,-430.15 277,-431.87 269.9,-424.01 266.55,-430.15"/>
</g>
<!-- modules/caddypki -->
<g id="node8" class="node">
<title>modules/caddypki</title>
<polygon fill="none" stroke="black" points="417.5,-414 301.5,-414 301.5,-378 417.5,-378 417.5,-414"/>
<text text-anchor="middle" x="359.5" y="-392.3" font-family="Times,serif" font-size="14.00">modules/caddypki</text>
</g>
<!-- modules/standard&#45;&gt;modules/caddypki -->
<g id="edge8" class="edge">
<title>modules/standard&#45;&gt;modules/caddypki</title>
<path fill="none" stroke="black" d="M186.24,-306.09C203.19,-324.49 231.82,-352.56 262,-369 271.2,-374.01 281.42,-378.16 291.66,-381.58"/>
<polygon fill="black" stroke="black" points="290.87,-384.99 301.46,-384.63 292.95,-378.31 290.87,-384.99"/>
</g>
<!-- modules/caddypki/acmeserver -->
<g id="node9" class="node">
<title>modules/caddypki/acmeserver</title>
<polygon fill="none" stroke="black" points="450.5,-360 268.5,-360 268.5,-324 450.5,-324 450.5,-360"/>
<text text-anchor="middle" x="359.5" y="-338.3" font-family="Times,serif" font-size="14.00">modules/caddypki/acmeserver</text>
</g>
<!-- modules/standard&#45;&gt;modules/caddypki/acmeserver -->
<g id="edge9" class="edge">
<title>modules/standard&#45;&gt;modules/caddypki/acmeserver</title>
<path fill="none" stroke="black" d="M226.11,-304.55C237.95,-308.03 250.38,-311.66 262,-315 269.01,-317.02 276.32,-319.1 283.63,-321.16"/>
<polygon fill="black" stroke="black" points="283,-324.62 293.58,-323.97 284.91,-317.89 283,-324.62"/>
</g>
<!-- modules/caddytls -->
<g id="node10" class="node">
<title>modules/caddytls</title>
<polygon fill="none" stroke="black" points="415.5,-306 303.5,-306 303.5,-270 415.5,-270 415.5,-306"/>
<text text-anchor="middle" x="359.5" y="-284.3" font-family="Times,serif" font-size="14.00">modules/caddytls</text>
</g>
<!-- modules/standard&#45;&gt;modules/caddytls -->
<g id="edge10" class="edge">
<title>modules/standard&#45;&gt;modules/caddytls</title>
<path fill="none" stroke="black" d="M226.14,-288C247.17,-288 271.3,-288 293.14,-288"/>
<polygon fill="black" stroke="black" points="293.32,-291.5 303.32,-288 293.32,-284.5 293.32,-291.5"/>
</g>
<!-- modules/caddytls/distributedstek -->
<g id="node11" class="node">
<title>modules/caddytls/distributedstek</title>
<polygon fill="none" stroke="black" points="457,-252 262,-252 262,-216 457,-216 457,-252"/>
<text text-anchor="middle" x="359.5" y="-230.3" font-family="Times,serif" font-size="14.00">modules/caddytls/distributedstek</text>
</g>
<!-- modules/standard&#45;&gt;modules/caddytls/distributedstek -->
<g id="edge11" class="edge">
<title>modules/standard&#45;&gt;modules/caddytls/distributedstek</title>
<path fill="none" stroke="black" d="M226.11,-271.45C237.95,-267.97 250.38,-264.34 262,-261 269.01,-258.98 276.32,-256.9 283.63,-254.84"/>
<polygon fill="black" stroke="black" points="284.91,-258.11 293.58,-252.03 283,-251.38 284.91,-258.11"/>
</g>
<!-- modules/caddytls/standardstek -->
<g id="node12" class="node">
<title>modules/caddytls/standardstek</title>
<polygon fill="none" stroke="black" points="451,-198 268,-198 268,-162 451,-162 451,-198"/>
<text text-anchor="middle" x="359.5" y="-176.3" font-family="Times,serif" font-size="14.00">modules/caddytls/standardstek</text>
</g>
<!-- modules/standard&#45;&gt;modules/caddytls/standardstek -->
<g id="edge12" class="edge">
<title>modules/standard&#45;&gt;modules/caddytls/standardstek</title>
<path fill="none" stroke="black" d="M186.24,-269.91C203.19,-251.51 231.82,-223.44 262,-207 265.29,-205.21 268.7,-203.53 272.2,-201.95"/>
<polygon fill="black" stroke="black" points="273.75,-205.1 281.64,-198.02 271.06,-198.64 273.75,-205.1"/>
</g>
<!-- modules/filestorage -->
<g id="node13" class="node">
<title>modules/filestorage</title>
<polygon fill="none" stroke="black" points="421.5,-144 297.5,-144 297.5,-108 421.5,-108 421.5,-144"/>
<text text-anchor="middle" x="359.5" y="-122.3" font-family="Times,serif" font-size="14.00">modules/filestorage</text>
</g>
<!-- modules/standard&#45;&gt;modules/filestorage -->
<g id="edge13" class="edge">
<title>modules/standard&#45;&gt;modules/filestorage</title>
<path fill="none" stroke="black" d="M177.9,-269.67C190.64,-240.48 219.49,-183.6 262,-153 269.75,-147.42 278.62,-142.99 287.77,-139.47"/>
<polygon fill="black" stroke="black" points="289.08,-142.72 297.37,-136.13 286.78,-136.11 289.08,-142.72"/>
</g>
<!-- modules/logging -->
<g id="node14" class="node">
<title>modules/logging</title>
<polygon fill="none" stroke="black" points="413.5,-90 305.5,-90 305.5,-54 413.5,-54 413.5,-90"/>
<text text-anchor="middle" x="359.5" y="-68.3" font-family="Times,serif" font-size="14.00">modules/logging</text>
</g>
<!-- modules/standard&#45;&gt;modules/logging -->
<g id="edge14" class="edge">
<title>modules/standard&#45;&gt;modules/logging</title>
<path fill="none" stroke="black" d="M174.06,-269.85C182.42,-232.16 206.9,-145.07 262,-99 271.64,-90.94 283.51,-85.28 295.6,-81.31"/>
<polygon fill="black" stroke="black" points="296.68,-84.64 305.3,-78.47 294.72,-77.92 296.68,-84.64"/>
</g>
<!-- modules/metrics -->
<g id="node15" class="node">
<title>modules/metrics</title>
<polygon fill="none" stroke="black" points="413,-36 306,-36 306,0 413,0 413,-36"/>
<text text-anchor="middle" x="359.5" y="-14.3" font-family="Times,serif" font-size="14.00">modules/metrics</text>
</g>
<!-- modules/standard&#45;&gt;modules/metrics -->
<g id="edge15" class="edge">
<title>modules/standard&#45;&gt;modules/metrics</title>
<path fill="none" stroke="black" d="M171.9,-269.68C176.35,-224.55 194.2,-107.13 262,-45 271.51,-36.28 283.62,-30.35 296.01,-26.32"/>
<polygon fill="black" stroke="black" points="297.31,-29.59 305.96,-23.48 295.39,-22.86 297.31,-29.59"/>
</g>
</g>
</svg>
