<?xml version="1.0" encoding="UTF-8" standalone="no"?>
<!DOCTYPE svg PUBLIC "-//W3C//DTD SVG 1.1//EN"
 "http://www.w3.org/Graphics/SVG/1.1/DTD/svg11.dtd">
<!-- Generated by graphviz version 2.50.0 (20211204.2007)
 -->
<!-- Pages: 1 -->
<svg width="380pt" height="259pt"
 viewBox="0.00 0.00 380.00 259.44" xmlns="http://www.w3.org/2000/svg" xmlns:xlink="http://www.w3.org/1999/xlink">
<g id="graph0" class="graph" transform="scale(1 1) rotate(0) translate(4 255.44)">
<polygon fill="white" stroke="transparent" points="-4,4 -4,-255.44 376,-255.44 376,4 -4,4"/>
<!-- cmd/litestream -->
<g id="node1" class="node">
<title>cmd/litestream</title>
<polygon fill="none" stroke="black" points="98,-159 0,-159 0,-123 98,-123 98,-159"/>
<text text-anchor="middle" x="49" y="-137.3" font-family="Times,serif" font-size="14.00">cmd/litestream</text>
</g>
<!-- . -->
<g id="node2" class="node">
<title>.</title>
<polygon fill="none" stroke="black" points="278,-136 224,-136 224,-100 278,-100 278,-136"/>
<text text-anchor="middle" x="251" y="-114.3" font-family="Times,serif" font-size="14.00">.</text>
</g>
<!-- cmd/litestream&#45;&gt;. -->
<g id="edge1" class="edge">
<title>cmd/litestream&#45;&gt;.</title>
<path fill="none" stroke="black" d="M98.16,-135.46C133.67,-131.38 181.25,-125.91 213.62,-122.18"/>
<polygon fill="black" stroke="black" points="214.44,-125.61 223.97,-120.99 213.64,-118.66 214.44,-125.61"/>
</g>
<!-- abs -->
<g id="node3" class="node">
<title>abs</title>
<polygon fill="none" stroke="black" points="188,-236 134,-236 134,-200 188,-200 188,-236"/>
<text text-anchor="middle" x="161" y="-214.3" font-family="Times,serif" font-size="14.00">abs</text>
</g>
<!-- cmd/litestream&#45;&gt;abs -->
<g id="edge2" class="edge">
<title>cmd/litestream&#45;&gt;abs</title>
<path fill="none" stroke="black" d="M75.79,-159.05C90.58,-169.4 109.33,-182.53 125.39,-193.77"/>
<polygon fill="black" stroke="black" points="123.79,-196.93 133.99,-199.79 127.81,-191.19 123.79,-196.93"/>
</g>
<!-- gcs -->
<g id="node4" class="node">
<title>gcs</title>
<polygon fill="none" stroke="black" points="188,-182 134,-182 134,-146 188,-146 188,-182"/>
<text text-anchor="middle" x="161" y="-160.3" font-family="Times,serif" font-size="14.00">gcs</text>
</g>
<!-- cmd/litestream&#45;&gt;gcs -->
<g id="edge3" class="edge">
<title>cmd/litestream&#45;&gt;gcs</title>
<path fill="none" stroke="black" d="M98.25,-151.09C106.85,-152.89 115.68,-154.73 123.87,-156.45"/>
<polygon fill="black" stroke="black" points="123.34,-159.91 133.85,-158.53 124.77,-153.06 123.34,-159.91"/>
</g>
<!-- internal -->
<g id="node5" class="node">
<title>internal</title>
<polygon fill="none" stroke="black" points="372,-159 314,-159 314,-123 372,-123 372,-159"/>
<text text-anchor="middle" x="343" y="-137.3" font-family="Times,serif" font-size="14.00">internal</text>
</g>
<!-- cmd/litestream&#45;&gt;internal -->
<g id="edge4" class="edge">
<title>cmd/litestream&#45;&gt;internal</title>
<path fill="none" stroke="black" d="M58.26,-159.12C70.67,-183.87 96.72,-227.19 134,-245 155.66,-255.35 164.79,-251.12 188,-245 239.33,-231.47 288.29,-192.37 316.73,-166.16"/>
<polygon fill="black" stroke="black" points="319.3,-168.54 324.19,-159.14 314.51,-163.44 319.3,-168.54"/>
</g>
<!-- s3 -->
<g id="node6" class="node">
<title>s3</title>
<polygon fill="none" stroke="black" points="188,-90 134,-90 134,-54 188,-54 188,-90"/>
<text text-anchor="middle" x="161" y="-68.3" font-family="Times,serif" font-size="14.00">s3</text>
</g>
<!-- cmd/litestream&#45;&gt;s3 -->
<g id="edge5" class="edge">
<title>cmd/litestream&#45;&gt;s3</title>
<path fill="none" stroke="black" d="M78.9,-122.87C93.16,-113.93 110.47,-103.07 125.43,-93.69"/>
<polygon fill="black" stroke="black" points="127.31,-96.64 133.92,-88.36 123.59,-90.71 127.31,-96.64"/>
</g>
<!-- sftp -->
<g id="node7" class="node">
<title>sftp</title>
<polygon fill="none" stroke="black" points="188,-36 134,-36 134,0 188,0 188,-36"/>
<text text-anchor="middle" x="161" y="-14.3" font-family="Times,serif" font-size="14.00">sftp</text>
</g>
<!-- cmd/litestream&#45;&gt;sftp -->
<g id="edge6" class="edge">
<title>cmd/litestream&#45;&gt;sftp</title>
<path fill="none" stroke="black" d="M65.54,-122.73C82.21,-103.24 109.59,-71.59 134,-45 134.41,-44.55 134.83,-44.1 135.25,-43.64"/>
<polygon fill="black" stroke="black" points="137.96,-45.87 142.26,-36.19 132.86,-41.08 137.96,-45.87"/>
</g>
<!-- .&#45;&gt;internal -->
<g id="edge11" class="edge">
<title>.&#45;&gt;internal</title>
<path fill="none" stroke="black" d="M278.03,-124.65C286.18,-126.73 295.34,-129.08 304.13,-131.32"/>
<polygon fill="black" stroke="black" points="303.27,-134.71 313.82,-133.8 305,-127.93 303.27,-134.71"/>
</g>
<!-- abs&#45;&gt;. -->
<g id="edge7" class="edge">
<title>abs&#45;&gt;.</title>
<path fill="none" stroke="black" d="M179.78,-199.85C182.56,-196.92 185.38,-193.9 188,-191 201.8,-175.74 216.74,-158.18 228.5,-144.11"/>
<polygon fill="black" stroke="black" points="231.32,-146.2 235.02,-136.27 225.93,-141.72 231.32,-146.2"/>
</g>
<!-- abs&#45;&gt;internal -->
<g id="edge8" class="edge">
<title>abs&#45;&gt;internal</title>
<path fill="none" stroke="black" d="M188.17,-206.8C218.74,-193.73 269.56,-171.99 304.36,-157.1"/>
<polygon fill="black" stroke="black" points="305.9,-160.25 313.72,-153.1 303.15,-153.81 305.9,-160.25"/>
</g>
<!-- gcs&#45;&gt;. -->
<g id="edge14" class="edge">
<title>gcs&#45;&gt;.</title>
<path fill="none" stroke="black" d="M188.4,-150.2C196.74,-145.84 206.1,-140.95 214.94,-136.32"/>
<polygon fill="black" stroke="black" points="216.68,-139.37 223.92,-131.63 213.44,-133.16 216.68,-139.37"/>
</g>
<!-- gcs&#45;&gt;internal -->
<g id="edge15" class="edge">
<title>gcs&#45;&gt;internal</title>
<path fill="none" stroke="black" d="M188.17,-160.66C218.48,-156.78 268.69,-150.37 303.46,-145.92"/>
<polygon fill="black" stroke="black" points="304.24,-149.35 313.72,-144.61 303.35,-142.41 304.24,-149.35"/>
</g>
<!-- s3&#45;&gt;. -->
<g id="edge12" class="edge">
<title>s3&#45;&gt;.</title>
<path fill="none" stroke="black" d="M188.4,-85.8C196.74,-90.16 206.1,-95.05 214.94,-99.68"/>
<polygon fill="black" stroke="black" points="213.44,-102.84 223.92,-104.37 216.68,-96.63 213.44,-102.84"/>
</g>
<!-- s3&#45;&gt;internal -->
<g id="edge13" class="edge">
<title>s3&#45;&gt;internal</title>
<path fill="none" stroke="black" d="M188.39,-72.61C212.61,-74.02 249.03,-78.31 278,-91 291.93,-97.1 305.48,-106.93 316.49,-116.27"/>
<polygon fill="black" stroke="black" points="314.22,-118.93 324.04,-122.92 318.85,-113.68 314.22,-118.93"/>
</g>
<!-- sftp&#45;&gt;. -->
<g id="edge9" class="edge">
<title>sftp&#45;&gt;.</title>
<path fill="none" stroke="black" d="M179.78,-36.15C182.56,-39.08 185.38,-42.1 188,-45 201.8,-60.26 216.74,-77.82 228.5,-91.89"/>
<polygon fill="black" stroke="black" points="225.93,-94.28 235.02,-99.73 231.32,-89.8 225.93,-94.28"/>
</g>
<!-- sftp&#45;&gt;internal -->
<g id="edge10" class="edge">
<title>sftp&#45;&gt;internal</title>
<path fill="none" stroke="black" d="M188.45,-26.94C213.04,-36.01 249.98,-51.6 278,-72 294.56,-84.06 310.25,-100.86 321.96,-114.86"/>
<polygon fill="black" stroke="black" points="319.33,-117.18 328.36,-122.73 324.76,-112.76 319.33,-117.18"/>
</g>
</g>
</svg>
